 I Am Legend (2007) 1080p (2 In 1)       
  
 
  I.Am.Legend.2in1.2007.BluRay.1080p.DTS.x264.dxva-EuReKA

Verenigde Staten
Drama / Science-Fiction
100 minuten

geregisseerd door Francis Lawrence
met Will Smith, Alice Braga en Charlie Tahan

Jaren nadat Dr. Alice Krippin een genezing voor kanker lijkt te hebben gevonden, heeft een mysterieus virus de hele wereld in zijn greep. Veel mensen zijn gestorven aan het virus en een ander deel is getransformeerd in een groep bloeddorstige vampiers. In de stad New York leeft enkel nog kolonel en wetenschapper Robert Neville, die druk op zoek is naar een geneesmiddel. 's Middags is de stad verlaten en alleen Robert en zijn hond Sam begeven zich dan op straat. Maar zodra het donker wordt komen de vampiers te voorschijn en gaan op zoek naar vers bloed.


English

Robert Neville is a scientist who was unable to stop the spread of the terrible virus that was incurable and man-made. Immune, Neville is now the last human survivor in what is left of New York City and perhaps the world. For three years, Neville has faithfully sent out daily radio messages, desperate to find any other survivors who might be out there. But he is not alone. Mutant victims of the plague -- The Infected -- lurk in the shadows... watching Neville's every move... waiting for him to make a fatal mistake. Perhaps mankind's last, best hope, Neville is driven by only one remaining mission: to find a way to reverse the effects of the virus using his own immune blood. But he knows he is outnumbered... and quickly running out of time.


General Info
------------
Length: 101 / 104 minutes

Technical Specs
---------------
Container...........: Matroska 
Video Encoder.......: x264 (748 Jarod's patched build) 
Video Aspect Ratio..: 2.40:1 (1920x796) 
Audio Codec.........: DTS
Audio BitRate.......: 1536 kbit/sec
Audio Channels......: 5.1 channels 
Subtitles...........: English + Dutch
Source..............: Blu-ray 
File Size...........: 7.94 GB (dvd9) 
DXVA compliant......: Yes 

Extra info: - Rightclick Haali-icon in taskbar
- Select "Edition 1" for Theatrical Version
- Select "Edition 2" for Alternate Version

---------------------------------------------------------------------
Spotinformatie 
Categorie : Beeld 
Formaat : x264HD 
Bron : Retail
 
Ondertitels : Nederlands (instelbaar)
Engels (instelbaar)

Format                           : Matroska
File size                        : 7.94 GiB
Duration                         : 1h 48mn
Overall bit rate                 : 10.5 Mbps
Encoded date                     : UTC 2009-02-13 02:32:05
Writing application              : mkvmerge v2.4.0 ('Fumbling Towards Ecstasy') built on Oct 11 2008 20:13:15
Writing library                  : libebml v0.7.7 + libmatroska v0.8.1

Video
ID                               : 1
Format                           : AVC
Format/Info                      : Advanced Video Codec
Format profile                   : High@L4.1
Format settings, CABAC           : Yes
Format settings, ReFrames        : 4 frames
Muxing mode                      : Container profile=Unknown@4.1
Codec ID                         : V_MPEG4/ISO/AVC
Duration                         : 1h 48mn
Bit rate                         : 8 779 Kbps
Nominal bit rate                 : 8 983 Kbps
Width                            : 1 920 pixels
Height                           : 796 pixels
Display aspect ratio             : 2.412
Frame rate                       : 23.976 fps
Resolution                       : 24 bits
Colorimetry                      : 4:2:0
Scan type                        : Progressive
Bits/(Pixel*Frame)               : 0.240
Stream size                      : 6.64 GiB (84%)
Title                            : x264
Writing library                  : x264 core 58
Encoding settings                : cabac=1 / ref=4 / deblock=1:-2:-2 / analyse=0x3:0x113 / me=umh / subme=7 / me-prepass=0 / brdo=1 / mixed_ref=1 / me_range=16 / chroma_me=1 / trellis=0 / 8x8dct=1 / cqm=0 / deadzone=6,4 / chroma_qp_offset=0 / threads=3 / nr=0 / decimate=0 / mbaff=0 / bframes=3 / b_pyramid=1 / b_adapt=1 / b_bias=0 / direct=3 / wpredb=1 / bime=1 / keyint=250 / keyint_min=25 / scenecut=40(pre) / rc=2pass / bitrate=8983 / ratetol=2.0 / rceq='blurCplx^(1-qComp)' / qcomp=0.71 / qpmin=10 / qpmax=51 / qpstep=4 / cplxblur=20.0 / qblur=0.5 / ip_ratio=1.40 / pb_ratio=1.30 / aq=1:0.5:13.0
Language                         : English

Audio
ID                               : 2
Format                           : DTS
Format/Info                      : Digital Theater Systems
Codec ID                         : A_DTS
Duration                         : 1h 48mn
Bit rate mode                    : Constant
Bit rate                         : 1 510 Kbps
Channel(s)                       : 6 channels
Channel positions                : Front: L C R, Surround: L R, LFE
Sampling rate                    : 48.0 KHz
Resolution                       : 24 bits
Stream size                      : 1.14 GiB (14%)
Title                            : DTS 5.1
Language                         : English

Text #1
ID                               : 3
Format                           : UTF-8
Codec ID                         : S_TEXT/UTF8
Codec ID/Info                    : UTF-8 Plain Text
Title                            : Theatrical
Language                         : English

Text #2
ID                               : 4
Format                           : UTF-8
Codec ID                         : S_TEXT/UTF8
Codec ID/Info                    : UTF-8 Plain Text
Title                            : Alternate
Language                         : English

Text #3
ID                               : 5
Format                           : UTF-8
Codec ID                         : S_TEXT/UTF8
Codec ID/Info                    : UTF-8 Plain Text
Title                            : Theatrical
Language                         : Dutch

Text #4
ID                               : 6
Format                           : UTF-8
Codec ID                         : S_TEXT/UTF8
Codec ID/Info                    : UTF-8 Plain Text
Title                            : Alternate
Language                         : Dutch

Menu #1
00:00:00.000                     : en:Theatrical

Menu #2
00:00:00.000                     : en:Part1
01:40:31.577                     : en:Extrascene1
00:35:04.064                     : en:Part2
01:40:50.096                     : en:Extrascene2
01:12:45.720                     : en:Part3
01:41:58.456                     : en:Altend
01:31:44.758                     : en:Credits


 
Genre : Actie
Science Fiction
 
Weblink :  http://www.imdb.com/title/tt0480249
Weblink :  http://www.moviemeter.nl/film/39617
  
*****************************************

Brought to you by
Pioen

2Lions Team

meer zien??
Kom dan eens kijken op ons Forum 
                      
http://www.2lions-site.nl  

2Lions the site to be for all your Dutch MOVIES and more

******************************************


DON T HIT AND RUN Niet gelijk afhaken als de FILM binnen is blijf seeden. 

Don`t quit after you finished the download, but keep seeding


There are fake torrents from uploaders who use our team name.
Those are not ours, or members from our team.
We 2Lions-Team are not responsible for the fake posts on our name

Wij 2Lions-Team zijn niet verantwoordelijk voor die zieke FAKE posten die op onze naam worden gedaan

Please check our site !!!
To the fakers Get a Live



 
 
 
